<svg width="40" height="40" viewBox="0 0 40 40" fill="none" xmlns="http://www.w3.org/2000/svg">
<path d="M3.33334 35V31.6667H18.3333V13.0417C17.6111 12.7917 16.9861 12.4028 16.4583 11.875C15.9306 11.3473 15.5417 10.7223 15.2917 10H10L15 21.6667C15 23.0556 14.4306 24.2362 13.2917 25.2084C12.1528 26.1806 10.7778 26.6667 9.16668 26.6667C7.55557 26.6667 6.18057 26.1806 5.04168 25.2084C3.90279 24.2362 3.33334 23.0556 3.33334 21.6667L8.33334 10H5.00001V6.66671H15.2917C15.625 5.69449 16.2222 4.89615 17.0833 4.27171C17.9445 3.64727 18.9167 3.33449 20 3.33338C21.0833 3.33227 22.0556 3.64504 22.9167 4.27171C23.7778 4.89838 24.375 5.69671 24.7083 6.66671H35V10H31.6667L36.6667 21.6667C36.6667 23.0556 36.0972 24.2362 34.9583 25.2084C33.8195 26.1806 32.4445 26.6667 30.8333 26.6667C29.2222 26.6667 27.8472 26.1806 26.7083 25.2084C25.5695 24.2362 25 23.0556 25 21.6667L30 10H24.7083C24.4583 10.7223 24.0695 11.3473 23.5417 11.875C23.0139 12.4028 22.3889 12.7917 21.6667 13.0417V31.6667H36.6667V35H3.33334ZM27.7083 21.6667H33.9583L30.8333 14.4167L27.7083 21.6667ZM6.04168 21.6667H12.2917L9.16668 14.4167L6.04168 21.6667ZM20 10C20.4722 10 20.8683 9.84004 21.1883 9.52004C21.5083 9.20004 21.6678 8.80449 21.6667 8.33338C21.6656 7.86227 21.5056 7.46671 21.1867 7.14671C20.8678 6.82671 20.4722 6.66671 20 6.66671C19.5278 6.66671 19.1322 6.82671 18.8133 7.14671C18.4945 7.46671 18.3345 7.86227 18.3333 8.33338C18.3322 8.80449 18.4922 9.2006 18.8133 9.52171C19.1345 9.84282 19.53 10.0023 20 10Z" fill="#FFBE0C"/>
</svg>
