<svg width="40" height="40" viewBox="0 0 40 40" fill="none" xmlns="http://www.w3.org/2000/svg">
<path fill-rule="evenodd" clip-rule="evenodd" d="M33.75 12.62C33.0667 12.62 32.5 12.0534 32.5 11.37V9.46337C29.7217 12.18 22.5633 18.0767 9.13001 22.555C9.00475 22.5993 8.87286 22.6218 8.74001 22.6217C8.44468 22.6195 8.15966 22.5128 7.9355 22.3205C7.71133 22.1282 7.56249 21.8628 7.51536 21.5712C7.46823 21.2796 7.52586 20.9808 7.67803 20.7277C7.8302 20.4746 8.06708 20.2835 8.34668 20.1884C21.3417 15.8517 28.2633 10.085 30.795 7.6217H28.75C28.0667 7.6217 27.5 7.05504 27.5 6.3717C27.5 5.68837 28.0667 5.1217 28.75 5.1217H33.75C34.4333 5.1217 35 5.68837 35 6.3717V11.3717C35 12.055 34.4333 12.62 33.75 12.62ZM8.74001 22.6217H8.74668H8.73001H8.74001ZM32.9167 37.6217C32.0333 37.6217 31.5 37.6217 30.9667 37.405C30.25 37.105 29.6833 36.5384 29.3833 35.8217C29.1667 35.2884 29.1667 34.755 29.1667 33.8717V18.8717C29.1667 17.9884 29.1667 17.455 29.3833 16.9217C29.6833 16.205 30.25 15.6384 30.9667 15.3384C31.5 15.1217 32.0333 15.1217 32.9167 15.1217C33.8 15.1217 34.3333 15.1217 34.8667 15.3384C35.5833 15.6384 36.15 16.205 36.45 16.9217C36.6667 17.455 36.6667 17.9884 36.6667 18.8717V33.8717C36.6667 34.755 36.6667 35.2884 36.45 35.8217C36.15 36.5384 35.5833 37.105 34.8667 37.405C34.3333 37.6217 33.8 37.6217 32.9167 37.6217ZM32.9167 17.6217C32.4833 17.6217 32.0333 17.6217 31.9167 17.655C31.8167 17.6884 31.75 17.7717 31.7 17.8717C31.6667 17.9717 31.6667 18.4217 31.6667 18.8717V33.8717C31.6667 34.305 31.6667 34.755 31.7 34.8717C31.7333 34.9717 31.8167 35.055 31.9167 35.0884C32.1333 35.155 33.6833 35.155 33.9167 35.0884C34.0167 35.055 34.0833 34.9717 34.1333 34.8717C34.1667 34.7717 34.1667 34.3217 34.1667 33.8717V18.8717C34.1667 18.4384 34.1667 17.9884 34.1333 17.8717C34.116 17.8215 34.0875 17.7759 34.05 17.7384C34.0124 17.7009 33.9669 17.6724 33.9167 17.655C33.8167 17.6217 33.3667 17.6217 32.9167 17.6217ZM21.25 37.6217C20.3667 37.6217 19.8333 37.6217 19.3 37.405C18.5833 37.105 18.0167 36.5384 17.7167 35.8217C17.5 35.2884 17.5 34.755 17.5 33.8717V24.705C17.5 23.8217 17.5 23.2884 17.7167 22.755C18.0167 22.0384 18.5833 21.4717 19.3 21.1717C19.8333 20.955 20.3667 20.955 21.25 20.955C22.1333 20.955 22.6667 20.955 23.2 21.1717C23.9167 21.4717 24.4833 22.0384 24.7833 22.755C25 23.2884 25 23.8217 25 24.705V33.8717C25 34.755 25 35.2884 24.7833 35.8217C24.4833 36.5384 23.9167 37.105 23.2 37.405C22.6667 37.6217 22.1333 37.6217 21.25 37.6217ZM21.25 23.455C20.8167 23.455 20.3667 23.455 20.25 23.4884C20.15 23.5217 20.0833 23.605 20.0333 23.705C20 23.805 20 24.255 20 24.705V33.8717C20 34.305 20 34.755 20.0333 34.8717C20.0667 34.9717 20.15 35.055 20.25 35.0884C20.4667 35.155 22.0167 35.155 22.25 35.0884C22.35 35.055 22.4167 34.9717 22.4667 34.8717C22.5 34.7717 22.5 34.3217 22.5 33.8717V24.705C22.5 24.2717 22.5 23.8217 22.4667 23.705C22.4494 23.6549 22.4209 23.6093 22.3833 23.5717C22.3458 23.5342 22.3002 23.5057 22.25 23.4884C22.15 23.455 21.7 23.455 21.25 23.455ZM7.63334 37.405C8.16668 37.6217 8.70001 37.6217 9.58334 37.6217C10.4667 37.6217 11 37.6217 11.5333 37.405C12.25 37.105 12.8167 36.5384 13.1167 35.8217C13.3333 35.2884 13.3333 34.755 13.3333 33.8717V28.8717C13.3333 27.9884 13.3333 27.455 13.1167 26.9217C12.8167 26.205 12.25 25.6384 11.5333 25.3384C11 25.1217 10.4667 25.1217 9.58334 25.1217C8.70001 25.1217 8.16668 25.1217 7.63334 25.3384C6.91668 25.6384 6.35001 26.205 6.05001 26.9217C5.83334 27.455 5.83334 27.9884 5.83334 28.8717V33.8717C5.83334 34.755 5.83334 35.2884 6.05001 35.8217C6.35001 36.5384 6.91668 37.105 7.63334 37.405ZM8.58334 27.655C8.70001 27.6217 9.15001 27.6217 9.58334 27.6217C10.0333 27.6217 10.4833 27.6217 10.5833 27.655C10.6833 27.6884 10.7667 27.7717 10.8 27.8717C10.8333 27.9884 10.8333 28.4384 10.8333 28.8717V33.8717C10.8333 34.3217 10.8333 34.7717 10.8 34.8717C10.75 34.9717 10.6833 35.055 10.5833 35.0884C10.35 35.155 8.80001 35.155 8.58334 35.0884C8.53316 35.0711 8.48758 35.0425 8.45004 35.005C8.4125 34.9675 8.384 34.9219 8.36668 34.8717C8.33334 34.755 8.33334 34.305 8.33334 33.8717V28.8717C8.33334 28.4217 8.33334 27.9717 8.36668 27.8717C8.41668 27.7717 8.48334 27.6884 8.58334 27.655Z" fill="#FF0000"/>
</svg>
