<svg width="40" height="40" viewBox="0 0 40 40" fill="none" xmlns="http://www.w3.org/2000/svg">
<g clip-path="url(#clip0_53_9)">
<path d="M39.825 19.375C39.6806 18.8961 39.4234 18.4588 39.075 18.1C38.8093 17.8127 38.4679 17.6065 38.09 17.505C38.275 17.7975 38.4425 18.135 38.5675 18.495C38.7092 18.8633 38.795 19.2525 38.825 19.6625C38.8668 20.0146 38.8668 20.3704 38.825 20.7225C38.7472 20.4614 38.6273 20.2148 38.47 19.9925C38.1598 19.5746 37.7463 19.2447 37.27 19.035C36.7418 18.7983 36.1449 18.7649 35.5936 18.9412C35.0423 19.1174 34.5755 19.4908 34.2825 19.99C34.1575 20.195 34.0575 20.4166 33.9825 20.655C31.0275 15.735 25.71 12.4775 19.63 12.4775C19.32 12.4775 19.0125 12.4858 18.7075 12.5025C16.8212 12.5055 14.9443 12.7688 13.13 13.285C12.975 12.2 11.55 9.99998 5 9.99998L7 16.275C5.74208 17.2913 4.68482 18.5334 3.8825 19.9375L1.87755e-06 20C1.87755e-06 20 -0.424998 30 2.5 30H3.85C4.77043 31.5568 5.99984 32.9087 7.4625 33.9725L7.5 40H10.2C13.475 40 15 40 15 38.125V37.15C17.5219 37.6147 20.1081 37.6079 22.6275 37.13L22.5 38.125C22.5 40 24.05 40 27.35 40H30V34.025C32.3427 32.3981 34.0293 29.9901 34.7575 27.2325C34.9 27.165 35.0425 27.1725 35.1875 27.1725C35.3325 27.1725 35.475 27.165 35.6175 27.1475C36.245 27.0325 36.8175 26.7875 37.315 26.44C37.9874 25.9643 38.502 25.2982 38.7925 24.5275C38.8625 24.2941 38.915 24.0508 38.95 23.7975L38.9525 23.7725C39.505 23.1175 39.8825 22.2975 40 21.395C40.0999 20.7053 40.0383 20.0018 39.82 19.34L39.825 19.375ZM8.775 19.375C9.27228 19.375 9.7492 19.5725 10.1008 19.9242C10.4525 20.2758 10.65 20.7527 10.65 21.25C10.65 21.7473 10.4525 22.2242 10.1008 22.5758C9.7492 22.9274 9.27228 23.125 8.775 23.125C8.27772 23.125 7.80081 22.9274 7.44918 22.5758C7.09755 22.2242 6.9 21.7473 6.9 21.25C6.9 20.7527 7.09755 20.2758 7.44918 19.9242C7.80081 19.5725 8.27772 19.375 8.775 19.375ZM14.7 17.5C14.4177 17.5916 14.1121 17.5797 13.8377 17.4666C13.5633 17.3535 13.3382 17.1464 13.2025 16.8825C13.16 16.7513 13.1458 16.6126 13.1608 16.4755C13.1758 16.3385 13.2197 16.2061 13.2897 16.0873C13.3596 15.9685 13.454 15.8658 13.5665 15.7861C13.679 15.7064 13.8072 15.6515 13.9425 15.625C15.5867 15.2301 17.2743 15.0453 18.965 15.075L19.2175 15.0725C20.9008 15.0758 22.525 15.2691 24.09 15.6525C24.405 15.7125 24.745 16.1075 24.745 16.5825C24.7443 16.6835 24.7283 16.7838 24.6975 16.88C24.6104 17.0424 24.4871 17.1826 24.3371 17.2897C24.1871 17.3968 24.0144 17.4679 23.8325 17.4975H23.45C22.0534 17.1612 20.6215 16.9934 19.185 16.9975H18.9625C17.45 16.9975 15.98 17.18 14.5725 17.525L14.7 17.5ZM36.45 24.825C36.1112 25.0677 35.7255 25.2371 35.3175 25.3225L35 25.325V24.225C35.4125 24.5375 35.935 24.725 36.5 24.725H36.5525L36.45 24.825ZM36.65 23.125C36.4176 23.1575 36.1809 23.1149 35.9744 23.0034C35.768 22.8918 35.6026 22.7172 35.5025 22.505C35.3865 22.2871 35.326 22.044 35.3264 21.7972C35.3269 21.5503 35.3882 21.3074 35.505 21.09C35.6231 20.9246 35.7982 20.8086 35.9966 20.7643C36.195 20.72 36.4027 20.7505 36.58 20.85C36.8065 20.9369 37.0014 21.0905 37.1389 21.2905C37.2763 21.4904 37.3499 21.7273 37.35 21.97C37.3979 22.3167 37.3971 22.671 37.3475 23.0175C37.1152 23.0614 36.8788 23.0798 36.6425 23.0725L36.65 23.125ZM20 7.49998H17.5V7.07498H18.125V4.34998H17.5L18.875 2.97498H19.375V7.07498H20V7.49998Z" fill="#15FF00"/>
<path d="M18.75 1.875C19.2426 1.87516 19.7304 1.97236 20.1854 2.16103C20.6405 2.34969 21.0539 2.62615 21.4022 2.9746C21.7504 3.32305 22.0266 3.73668 22.2149 4.19186C22.4033 4.64705 22.5002 5.13488 22.5 5.6275C22.4998 6.12012 22.4026 6.60789 22.214 7.06295C22.0253 7.51801 21.7489 7.93145 21.4004 8.27967C21.0519 8.62789 20.6383 8.90407 20.1831 9.09243C19.728 9.2808 19.2401 9.37766 18.7475 9.3775C17.7526 9.37717 16.7986 8.98163 16.0953 8.2779C15.3921 7.57417 14.9972 6.61989 14.9975 5.625C14.9978 4.63011 15.3934 3.67609 16.0971 2.97283C16.8008 2.26957 17.7551 1.87467 18.75 1.875ZM18.75 0C17.2582 0 15.8274 0.592632 14.7725 1.64752C13.7176 2.70242 13.125 4.13316 13.125 5.625C13.125 7.11684 13.7176 8.54758 14.7725 9.60248C15.8274 10.6574 17.2582 11.25 18.75 11.25C20.2418 11.25 21.6726 10.6574 22.7275 9.60248C23.7824 8.54758 24.375 7.11684 24.375 5.625C24.375 4.13316 23.7824 2.70242 22.7275 1.64752C21.6726 0.592632 20.2418 0 18.75 0Z" fill="#15FF00"/>
</g>
<defs>
<clipPath id="clip0_53_9">
<rect width="40" height="40" fill="white"/>
</clipPath>
</defs>
</svg>
